#N canvas 458 39 852 486 10;
#N canvas -97 -1055 785 847 del 1;
#X obj 11 8 inlet~;
#X obj 441 8 inlet;
#X obj 452 794 outlet~;
#X obj 522 8 inlet;
#X obj 52 770 lop~ 10000;
#X obj 441 32 clip -1 1;
#X obj 610 8 inlet;
#X obj 13 772 *~;
#X obj 646 69 line~;
#X msg 646 28 1;
#X obj 647 8 loadbang;
#X msg 646 49 \$1 20;
#X obj 78 446 hip~ 10;
#X obj 44 82 loadbang;
#X msg 44 103 1;
#X obj 54 130 metro 250;
#X obj 54 160 f;
#X obj 107 149 + 1;
#X obj 107 178 % 2;
#X obj 54 199 s \$0-delFlipFlop;
#X obj 105 102 -15;
#X obj 210 63 s \$0-delT;
#X obj 78 358 line~;
#X obj 78 255 sel 0 1;
#X obj 78 295 pack f f;
#X msg 28 295 0 1;
#X msg 78 327 \$1 \$2;
#X obj 238 295 del;
#X obj 158 358 line~;
#X obj 256 255 - 15;
#X obj 138 255 * 2;
#X obj 256 225 r \$0-delT;
#X obj 78 225 r \$0-delFlipFlop;
#X obj 418 358 line~;
#X obj 418 294 pack f f;
#X msg 368 294 0 1;
#X msg 418 327 \$1 \$2;
#X obj 578 294 del;
#X obj 498 358 line~;
#X obj 596 254 - 15;
#X obj 478 254 * 2;
#X obj 596 224 r \$0-delT;
#X obj 418 224 r \$0-delFlipFlop;
#X obj 418 254 sel 1 0;
#X obj 78 385 vd~ \$0-del1;
#X obj 418 384 vd~ \$0-del1;
#X obj 78 414 *~;
#X obj 418 414 *~;
#X obj 441 53 s \$0-fdbk;
#X obj 78 470 s~ \$0-rdel;
#X obj 452 751 r~ \$0-rdel;
#X obj 646 90 s~ \$0-inputVol;
#X obj 31 723 r~ \$0-inputVol;
#X obj 522 29 s \$0-lpf;
#X obj 158 751 r \$0-lpf;
#X obj 52 751 r~ \$0-rdelfdbk;
#X obj 13 794 delwrite~ \$0-del1 36000;
#X obj 45 654 *~ 0;
#X obj 110 637 r \$0-fdbk;
#X obj 45 681 s~ \$0-rdelfdbk;
#X obj 45 597 vd~ \$0-del1;
#X obj 45 622 hip~ 10;
#X obj 45 506 r \$0-delT;
#X obj 45 531 - 15;
#X obj 45 570 sig~;
#X obj 105 8 inlet~;
#N canvas 495 25 450 300 snap~ 0;
#X obj 18 4 inlet~;
#X obj 18 143 snapshot~;
#X obj 121 40 loadbang;
#X msg 121 69 1;
#X obj 121 98 metro 1;
#X obj 18 212 outlet;
#X obj 18 176 change;
#X connect 0 0 1 0;
#X connect 1 0 6 0;
#X connect 2 0 3 0;
#X connect 3 0 4 0;
#X connect 4 0 1 0;
#X connect 6 0 5 0;
#X restore 105 34 pd snap~;
#X obj 210 92 expr if ($f1>30 \, 15 \, $f1*0.5);
#X obj 210 112 s \$0-fade;
#X obj 124 75 r \$0-fade;
#X obj 185 225 r \$0-fade;
#X obj 524 224 r \$0-fade;
#X obj 158 294 pack 1 15;
#X obj 498 294 pack 1 15;
#X obj 603 294 r \$0-fade;
#X obj 552 331 pack 0 15;
#X obj 263 295 r \$0-fade;
#X obj 212 332 pack 0 15;
#X obj 108 506 r \$0-fade;
#X floatatom 108 535 5 0 0 0 - - -, f 5;
#X obj 324 225 r \$0-fade;
#X obj 665 224 r \$0-fade;
#X connect 0 0 7 0;
#X connect 1 0 5 0;
#X connect 3 0 53 0;
#X connect 4 0 56 0;
#X connect 5 0 48 0;
#X connect 6 0 11 0;
#X connect 7 0 56 0;
#X connect 8 0 51 0;
#X connect 9 0 11 0;
#X connect 10 0 9 0;
#X connect 11 0 8 0;
#X connect 12 0 49 0;
#X connect 13 0 14 0;
#X connect 14 0 15 0;
#X connect 15 0 16 0;
#X connect 16 0 17 0;
#X connect 16 0 19 0;
#X connect 17 0 18 0;
#X connect 18 0 16 1;
#X connect 20 0 15 1;
#X connect 22 0 44 0;
#X connect 23 0 24 0;
#X connect 23 0 27 0;
#X connect 23 0 72 0;
#X connect 23 1 25 0;
#X connect 24 0 26 0;
#X connect 25 0 22 0;
#X connect 26 0 22 0;
#X connect 27 0 77 0;
#X connect 28 0 46 1;
#X connect 29 0 27 1;
#X connect 30 0 24 0;
#X connect 31 0 24 1;
#X connect 31 0 30 0;
#X connect 31 0 29 0;
#X connect 32 0 23 0;
#X connect 33 0 45 0;
#X connect 34 0 36 0;
#X connect 35 0 33 0;
#X connect 36 0 33 0;
#X connect 37 0 75 0;
#X connect 38 0 47 1;
#X connect 39 0 37 1;
#X connect 40 0 34 0;
#X connect 41 0 34 1;
#X connect 41 0 40 0;
#X connect 41 0 39 0;
#X connect 42 0 43 0;
#X connect 43 0 34 0;
#X connect 43 0 37 0;
#X connect 43 0 73 0;
#X connect 43 1 35 0;
#X connect 44 0 46 0;
#X connect 45 0 47 0;
#X connect 46 0 12 0;
#X connect 47 0 12 0;
#X connect 50 0 2 0;
#X connect 52 0 7 1;
#X connect 54 0 4 1;
#X connect 55 0 4 0;
#X connect 57 0 59 0;
#X connect 58 0 57 1;
#X connect 60 0 61 0;
#X connect 61 0 57 0;
#X connect 62 0 63 0;
#X connect 63 0 64 0;
#X connect 64 0 60 0;
#X connect 65 0 66 0;
#X connect 66 0 21 0;
#X connect 66 0 20 0;
#X connect 66 0 67 0;
#X connect 67 0 68 0;
#X connect 69 0 20 1;
#X connect 70 0 72 1;
#X connect 71 0 73 1;
#X connect 72 0 28 0;
#X connect 73 0 38 0;
#X connect 74 0 75 1;
#X connect 75 0 38 0;
#X connect 76 0 77 1;
#X connect 77 0 28 0;
#X connect 78 0 63 1;
#X connect 78 0 79 0;
#X connect 80 0 29 1;
#X connect 81 0 39 1;
#X restore 118 183 pd del;
#X obj 117 40 inlet~;
#X obj 132 60 inlet~;
#X obj 118 281 outlet~;
#X obj 542 92 u_dispatch \$0 feedback;
#X obj 542 113 u_dispatch \$0 lpfreq;
#X obj 593 66 u_loader e_fbdelay-\$1 \$0;
#X obj 542 66 inlet;
#X obj 210 131 r \$0-feedback;
#X obj 315 132 r \$0-lpfreq;
#X obj 542 136 u_dispatch \$0 delay;
#X obj 391 286 r \$0-delayfreq;
#X obj 542 158 u_dispatch \$0 delayfreq;
#X obj 391 315 swap 1000;
#X obj 391 345 /;
#X text 474 314 delay time can be set as frequency as well.;
#X obj 208 47 r \$0-delay;
#X obj 391 374 s \$0-delay;
#X obj 208 104 line~;
#X obj 119 259 c_xfade;
#X msg 165 237 \$1 10;
#X obj 165 216 r \$0-dry;
#X obj 315 158 r \$0-input;
#X obj 542 204 u_dispatch \$0 input;
#X obj 208 74 pack 0 10;
#X obj 542 229 u_dispatch \$0 itime;
#X obj 288 46 r \$0-itime;
#N canvas 172 83 586 377 LICENSE-GPL 0;
#X text 57 88 This program is free software: you can redistribute it
and/or modify it under the terms of the GNU General Public License
as published by the Free Software Foundation \, either version 3 of
the License \, or (at your option) any later version.;
#X text 58 168 This program is distributed in the hope that it will
be useful \, but WITHOUT ANY WARRANTY \; without even the implied warranty
of MERCHANTABILITY or FITNESS FOR A PARTICULAR PURPOSE. See the GNU
General Public License for more details.;
#X text 57 261 You should have received a copy of the GNU General Public
License along with this program. If not \, see <http://www.gnu.org/licenses/>.
;
#X text 61 54 Copyright (C) 2009 \, Reality Jockey Ltd.;
#X text 60 325 See the file LICENSE.txt for the full license text.
;
#X restore 682 19 pd LICENSE-GPL;
#X obj 542 180 u_dispatch \$0 dry;
#X connect 0 0 19 0;
#X connect 1 0 19 1;
#X connect 1 0 0 0;
#X connect 2 0 0 1;
#X connect 4 0 5 0;
#X connect 5 0 10 0;
#X connect 7 0 4 0;
#X connect 8 0 0 2;
#X connect 9 0 0 3;
#X connect 10 0 12 0;
#X connect 11 0 13 0;
#X connect 12 0 28 0;
#X connect 13 0 14 0;
#X connect 13 1 14 1;
#X connect 14 0 17 0;
#X connect 16 0 24 0;
#X connect 18 0 0 1;
#X connect 19 0 3 0;
#X connect 20 0 19 2;
#X connect 21 0 20 0;
#X connect 22 0 0 4;
#X connect 23 0 25 0;
#X connect 24 0 18 0;
#X connect 26 0 24 1;
#X connect 28 0 23 0;
